<?xml version="1.0" encoding="UTF-8" standalone="no"?>
<svg
   width="1549.1248"
   height="458.71555"
   version="1.1"
   id="svg182"
   sodipodi:docname="creek-demo-design.svg"
   inkscape:version="1.2.2 (b0a84865, 2022-12-01)"
   xmlns:inkscape="http://www.inkscape.org/namespaces/inkscape"
   xmlns:sodipodi="http://sodipodi.sourceforge.net/DTD/sodipodi-0.dtd"
   xmlns:xlink="http://www.w3.org/1999/xlink"
   xmlns="http://www.w3.org/2000/svg"
   xmlns:svg="http://www.w3.org/2000/svg">
  <defs
     id="defs186">
    <marker
       style="overflow:visible"
       id="Arrow1"
       refX="0"
       refY="0"
       orient="auto-start-reverse"
       inkscape:stockid="Arrow1"
       markerWidth="4.0606599"
       markerHeight="6.7071066"
       viewBox="0 0 4.0606602 6.7071068"
       inkscape:isstock="true"
       inkscape:collect="always"
       preserveAspectRatio="xMidYMid">
      <path
         style="fill:none;stroke:context-stroke;stroke-width:1;stroke-linecap:butt"
         d="M 3,-3 0,0 3,3"
         id="path5057"
         transform="rotate(180,0.125,0)"
         sodipodi:nodetypes="ccc" />
    </marker>
    <clipPath
       clipPathUnits="userSpaceOnUse"
       id="clipPath1105">
      <rect
         style="fill:#8ecae6;fill-opacity:1;stroke:#0f2f45;stroke-width:0.457374;stroke-dasharray:none;stroke-dashoffset:0"
         id="rect1107"
         width="28.046255"
         height="140.0334"
         x="165.44077"
         y="-12.40815" />
    </clipPath>
    <defs
       id="defs178">
      <path
         fill="#023047"
         d="M 186,0 V -106 H 76 V 0 H 24 v -248 h 52 v 99 h 110 v -99 h 50 V 0 h -50"
         id="f" />
      <path
         fill="#023047"
         d="M 133,-34 C 117,-15 103,5 69,4 32,3 11,-16 11,-54 c -1,-60 55,-63 116,-61 1,-26 -3,-47 -28,-47 -18,1 -26,9 -28,27 l -52,-2 c 7,-38 36,-58 82,-57 46,1 74,22 75,68 l 1,82 c -1,14 12,18 25,15 v 27 c -30,8 -71,5 -69,-32 z m -48,3 c 29,0 43,-24 42,-57 -32,0 -66,-3 -65,30 0,17 8,27 23,27"
         id="g" />
      <path
         fill="#023047"
         d="m 135,-194 c 87,-1 58,113 63,194 h -50 c -7,-57 23,-157 -34,-157 -59,0 -34,97 -39,157 H 25 l -1,-190 h 47 c 2,12 -1,28 3,38 12,-26 28,-41 61,-42"
         id="h" />
      <path
         fill="#023047"
         d="m 88,-194 c 31,-1 46,15 58,34 l -1,-101 h 50 l 1,261 h -48 c -2,-10 0,-23 -3,-31 C 134,-8 116,4 84,4 32,4 16,-41 15,-95 c 0,-56 19,-97 73,-99 z m 17,164 c 33,0 40,-30 41,-66 1,-37 -9,-64 -41,-64 -32,0 -38,30 -39,65 0,43 13,65 39,65"
         id="i" />
      <path
         fill="#023047"
         d="M 25,0 V -261 H 75 V 0 H 25"
         id="j" />
      <path
         fill="#023047"
         d="M 185,-48 C 172,-18 148,5 103,4 43,2 14,-33 14,-96 c 0,-63 30,-98 90,-98 62,0 83,45 84,108 H 66 c 0,31 8,55 39,56 18,0 30,-7 34,-22 z m -45,-69 c 5,-46 -57,-63 -70,-21 -2,6 -4,13 -4,21 h 74"
         id="k" />
      <g
         id="a">
        <use
           transform="scale(0.06790123)"
           xlink:href="#f"
           id="use32" />
        <use
           transform="matrix(0.06790123,0,0,0.06790123,17.58642,0)"
           xlink:href="#g"
           id="use34" />
        <use
           transform="matrix(0.06790123,0,0,0.06790123,31.166667,0)"
           xlink:href="#h"
           id="use36" />
        <use
           transform="matrix(0.06790123,0,0,0.06790123,46.037037,0)"
           xlink:href="#i"
           id="use38" />
        <use
           transform="matrix(0.06790123,0,0,0.06790123,60.907407,0)"
           xlink:href="#j"
           id="use40" />
        <use
           transform="matrix(0.06790123,0,0,0.06790123,67.697531,0)"
           xlink:href="#k"
           id="use42" />
      </g>
      <path
         fill="#202124"
         d="m 140,-251 c 80,0 125,45 125,126 C 265,-44 219,4 139,4 58,4 15,-44 15,-125 c 0,-81 44,-126 125,-126 z m -1,214 c 52,0 73,-35 73,-88 0,-50 -21,-86 -72,-86 -52,0 -73,35 -73,86 0,51 22,88 72,88"
         id="l" />
      <path
         fill="#202124"
         d="M 190,-63 C 183,-21 152,4 104,4 45,4 20,-34 14,-94 2,-204 168,-231 188,-130 l -49,2 c -2,-19 -15,-32 -35,-32 -30,0 -35,28 -38,64 -6,74 65,87 74,30"
         id="m" />
      <path
         fill="#202124"
         d="M 85,4 C -2,5 27,-109 22,-190 h 50 c 7,57 -23,150 33,157 60,-5 35,-97 40,-157 h 50 l 1,190 h -47 c -2,-12 1,-28 -3,-38 -12,25 -28,42 -61,42"
         id="n" />
      <path
         fill="#202124"
         d="m 135,-150 c -39,-12 -60,13 -60,57 V 0 H 25 l -1,-190 h 47 c 2,13 -1,29 3,40 6,-28 27,-53 61,-41 v 41"
         id="o" />
      <path
         fill="#202124"
         d="M 185,-48 C 172,-18 148,5 103,4 43,2 14,-33 14,-96 c 0,-63 30,-98 90,-98 62,0 83,45 84,108 H 66 c 0,31 8,55 39,56 18,0 30,-7 34,-22 z m -45,-69 c 5,-46 -57,-63 -70,-21 -2,6 -4,13 -4,21 h 74"
         id="p" />
      <path
         fill="#202124"
         d="m 135,-194 c 87,-1 58,113 63,194 h -50 c -7,-57 23,-157 -34,-157 -59,0 -34,97 -39,157 H 25 l -1,-190 h 47 c 2,12 -1,28 3,38 12,-26 28,-41 61,-42"
         id="q" />
      <g
         id="b">
        <use
           transform="scale(0.06666667)"
           xlink:href="#l"
           id="use51" />
        <use
           transform="matrix(0.06666667,0,0,0.06666667,18.666667,0)"
           xlink:href="#m"
           id="use53" />
        <use
           transform="matrix(0.06666667,0,0,0.06666667,32,0)"
           xlink:href="#m"
           id="use55" />
        <use
           transform="matrix(0.06666667,0,0,0.06666667,45.333333,0)"
           xlink:href="#n"
           id="use57" />
        <use
           transform="matrix(0.06666667,0,0,0.06666667,59.933333,0)"
           xlink:href="#o"
           id="use59" />
        <use
           transform="matrix(0.06666667,0,0,0.06666667,69.266667,0)"
           xlink:href="#o"
           id="use61" />
        <use
           transform="matrix(0.06666667,0,0,0.06666667,78.6,0)"
           xlink:href="#p"
           id="use63" />
        <use
           transform="matrix(0.06666667,0,0,0.06666667,91.933333,0)"
           xlink:href="#q"
           id="use65" />
        <use
           transform="matrix(0.06666667,0,0,0.06666667,106.53333,0)"
           xlink:href="#m"
           id="use67" />
        <use
           transform="matrix(0.06666667,0,0,0.06666667,119.86667,0)"
           xlink:href="#p"
           id="use69" />
      </g>
      <path
         fill="#023047"
         d="m 169,-182 c -1,-43 -94,-46 -97,-3 18,66 151,10 154,114 3,95 -165,93 -204,36 -6,-8 -10,-19 -12,-30 l 50,-8 c 3,46 112,56 116,5 -17,-69 -150,-10 -154,-114 -4,-87 153,-88 188,-35 5,8 8,18 10,28"
         id="r" />
      <path
         fill="#023047"
         d="m 135,-150 c -39,-12 -60,13 -60,57 V 0 H 25 l -1,-190 h 47 c 2,13 -1,29 3,40 6,-28 27,-53 61,-41 v 41"
         id="s" />
      <path
         fill="#023047"
         d="M 128,0 H 69 L 1,-190 h 53 l 45,150 48,-150 h 52"
         id="t" />
      <path
         fill="#023047"
         d="m 25,-224 v -37 h 50 v 37 z M 25,0 V -190 H 75 V 0 H 25"
         id="u" />
      <path
         fill="#023047"
         d="M 190,-63 C 183,-21 152,4 104,4 45,4 20,-34 14,-94 2,-204 168,-231 188,-130 l -49,2 c -2,-19 -15,-32 -35,-32 -30,0 -35,28 -38,64 -6,74 65,87 74,30"
         id="v" />
      <g
         id="c">
        <use
           transform="scale(0.06790123)"
           xlink:href="#r"
           id="use77" />
        <use
           transform="matrix(0.06790123,0,0,0.06790123,16.296296,0)"
           xlink:href="#k"
           id="use79" />
        <use
           transform="matrix(0.06790123,0,0,0.06790123,29.876543,0)"
           xlink:href="#s"
           id="use81" />
        <use
           transform="matrix(0.06790123,0,0,0.06790123,39.382716,0)"
           xlink:href="#t"
           id="use83" />
        <use
           transform="matrix(0.06790123,0,0,0.06790123,52.962963,0)"
           xlink:href="#u"
           id="use85" />
        <use
           transform="matrix(0.06790123,0,0,0.06790123,59.753086,0)"
           xlink:href="#v"
           id="use87" />
        <use
           transform="matrix(0.06790123,0,0,0.06790123,73.333333,0)"
           xlink:href="#k"
           id="use89" />
      </g>
      <path
         fill="#023047"
         d="M 115,-3 C 79,11 28,4 28,-45 V -157 H 4 v -33 h 27 l 15,-45 h 31 v 45 h 36 v 33 H 77 v 99 c -1,23 16,31 38,25 v 30"
         id="w" />
      <path
         fill="#023047"
         d="M 231,0 H 179 L 140,-155 100,0 H 48 L -1,-190 h 46 l 32,145 c 9,-52 24,-97 36,-145 h 53 l 37,145 32,-145 h 46"
         id="x" />
      <path
         fill="#023047"
         d="M 24,0 V -54 H 75 V 0 H 24"
         id="y" />
      <path
         fill="#023047"
         d="M 144,0 100,-69 55,0 H 2 L 72,-98 6,-190 h 53 l 41,62 40,-62 h 54 l -67,91 71,99 h -54"
         id="z" />
      <g
         id="d">
        <use
           transform="scale(0.05456802)"
           xlink:href="#w"
           id="use96" />
        <use
           transform="matrix(0.05456802,0,0,0.05456802,6.4935949,0)"
           xlink:href="#x"
           id="use98" />
        <use
           transform="matrix(0.05456802,0,0,0.05456802,21.772642,0)"
           xlink:href="#u"
           id="use100" />
        <use
           transform="matrix(0.05456802,0,0,0.05456802,27.229444,0)"
           xlink:href="#w"
           id="use102" />
        <use
           transform="matrix(0.05456802,0,0,0.05456802,33.723039,0)"
           xlink:href="#w"
           id="use104" />
        <use
           transform="matrix(0.05456802,0,0,0.05456802,40.216634,0)"
           xlink:href="#k"
           id="use106" />
        <use
           transform="matrix(0.05456802,0,0,0.05456802,51.130239,0)"
           xlink:href="#s"
           id="use108" />
        <use
           transform="matrix(0.05456802,0,0,0.05456802,57.678402,0)"
           xlink:href="#y"
           id="use110" />
        <use
           transform="matrix(0.05456802,0,0,0.05456802,63.135205,0)"
           xlink:href="#w"
           id="use112" />
        <use
           transform="matrix(0.05456802,0,0,0.05456802,69.6288,0)"
           xlink:href="#x"
           id="use114" />
        <use
           transform="matrix(0.05456802,0,0,0.05456802,84.907846,0)"
           xlink:href="#k"
           id="use116" />
        <use
           transform="matrix(0.05456802,0,0,0.05456802,95.821451,0)"
           xlink:href="#k"
           id="use118" />
        <use
           transform="matrix(0.05456802,0,0,0.05456802,106.73506,0)"
           xlink:href="#w"
           id="use120" />
        <use
           transform="matrix(0.05456802,0,0,0.05456802,113.22865,0)"
           xlink:href="#y"
           id="use122" />
        <use
           transform="matrix(0.05456802,0,0,0.05456802,118.68545,0)"
           xlink:href="#w"
           id="use124" />
        <use
           transform="matrix(0.05456802,0,0,0.05456802,125.17905,0)"
           xlink:href="#k"
           id="use126" />
        <use
           transform="matrix(0.05456802,0,0,0.05456802,136.09265,0)"
           xlink:href="#z"
           id="use128" />
        <use
           transform="matrix(0.05456802,0,0,0.05456802,147.00626,0)"
           xlink:href="#w"
           id="use130" />
      </g>
      <path
         fill="#023047"
         d="M 114,-157 C 55,-157 80,-60 75,0 H 25 v -261 h 50 l -1,109 c 12,-26 28,-41 61,-42 86,-1 58,113 63,194 h -50 c -7,-57 23,-157 -34,-157"
         id="A" />
      <path
         fill="#023047"
         d="M 85,4 C -2,5 27,-109 22,-190 h 50 c 7,57 -23,150 33,157 60,-5 35,-97 40,-157 h 50 l 1,190 h -47 c -2,-12 1,-28 -3,-38 -12,25 -28,42 -61,42"
         id="B" />
      <path
         fill="#023047"
         d="m 137,-138 c 1,-29 -70,-34 -71,-4 15,46 118,7 119,86 1,83 -164,76 -172,9 l 43,-7 c 4,19 20,25 44,25 33,8 57,-30 24,-41 -43,-14 -102,-11 -104,-66 -2,-80 154,-74 161,-7"
         id="C" />
      <path
         fill="#023047"
         d="M 195,-6 C 206,82 75,100 31,46 27,40 25,33 23,25 l 49,-6 c 3,16 16,24 34,25 40,0 42,-37 40,-79 C 135,-13 116,0 85,0 32,0 15,-43 15,-97 c 0,-56 18,-96 73,-97 30,0 46,14 59,34 l 2,-30 h 47 z m -90,-29 c 32,0 41,-27 41,-63 0,-35 -9,-62 -40,-62 -32,0 -39,29 -40,63 0,36 9,62 39,62"
         id="D" />
      <g
         id="e">
        <use
           transform="scale(0.05456802)"
           xlink:href="#w"
           id="use137" />
        <use
           transform="matrix(0.05456802,0,0,0.05456802,6.4935949,0)"
           xlink:href="#x"
           id="use139" />
        <use
           transform="matrix(0.05456802,0,0,0.05456802,21.772642,0)"
           xlink:href="#u"
           id="use141" />
        <use
           transform="matrix(0.05456802,0,0,0.05456802,27.229444,0)"
           xlink:href="#w"
           id="use143" />
        <use
           transform="matrix(0.05456802,0,0,0.05456802,33.723039,0)"
           xlink:href="#w"
           id="use145" />
        <use
           transform="matrix(0.05456802,0,0,0.05456802,40.216634,0)"
           xlink:href="#k"
           id="use147" />
        <use
           transform="matrix(0.05456802,0,0,0.05456802,51.130239,0)"
           xlink:href="#s"
           id="use149" />
        <use
           transform="matrix(0.05456802,0,0,0.05456802,57.678402,0)"
           xlink:href="#y"
           id="use151" />
        <use
           transform="matrix(0.05456802,0,0,0.05456802,63.135205,0)"
           xlink:href="#A"
           id="use153" />
        <use
           transform="matrix(0.05456802,0,0,0.05456802,75.085602,0)"
           xlink:href="#g"
           id="use155" />
        <use
           transform="matrix(0.05456802,0,0,0.05456802,85.999207,0)"
           xlink:href="#h"
           id="use157" />
        <use
           transform="matrix(0.05456802,0,0,0.05456802,97.949604,0)"
           xlink:href="#i"
           id="use159" />
        <use
           transform="matrix(0.05456802,0,0,0.05456802,109.9,0)"
           xlink:href="#j"
           id="use161" />
        <use
           transform="matrix(0.05456802,0,0,0.05456802,115.3568,0)"
           xlink:href="#k"
           id="use163" />
        <use
           transform="matrix(0.05456802,0,0,0.05456802,126.27041,0)"
           xlink:href="#y"
           id="use165" />
        <use
           transform="matrix(0.05456802,0,0,0.05456802,131.72721,0)"
           xlink:href="#B"
           id="use167" />
        <use
           transform="matrix(0.05456802,0,0,0.05456802,143.67761,0)"
           xlink:href="#C"
           id="use169" />
        <use
           transform="matrix(0.05456802,0,0,0.05456802,154.59121,0)"
           xlink:href="#g"
           id="use171" />
        <use
           transform="matrix(0.05456802,0,0,0.05456802,165.50482,0)"
           xlink:href="#D"
           id="use173" />
        <use
           transform="matrix(0.05456802,0,0,0.05456802,177.45522,0)"
           xlink:href="#k"
           id="use175" />
      </g>
    </defs>
    <clipPath
       clipPathUnits="userSpaceOnUse"
       id="clipPath1105-7">
      <rect
         style="fill:#8ecae6;fill-opacity:1;stroke:#0f2f45;stroke-width:0.457374;stroke-dasharray:none;stroke-dashoffset:0"
         id="rect1107-1"
         width="28.046255"
         height="140.0334"
         x="165.44077"
         y="-12.40815" />
    </clipPath>
  </defs>
  <sodipodi:namedview
     id="namedview184"
     pagecolor="#ffffff"
     bordercolor="#000000"
     borderopacity="0.25"
     inkscape:showpageshadow="2"
     inkscape:pageopacity="0.0"
     inkscape:pagecheckerboard="0"
     inkscape:deskcolor="#d1d1d1"
     showgrid="false"
     inkscape:zoom="1.4396324"
     inkscape:cx="965.52423"
     inkscape:cy="112.87603"
     inkscape:window-width="2325"
     inkscape:window-height="1205"
     inkscape:window-x="0"
     inkscape:window-y="25"
     inkscape:window-maximized="0"
     inkscape:current-layer="svg182" />
  <path
     d="M 543.27056,21.796204 A 18.775977,20.174461 0 0 1 562.04644,1.6217467 h 463.14086 a 18.775977,20.174461 0 0 1 18.7758,20.1744573 V 436.91935 a 18.775977,20.174461 0 0 1 -18.7758,20.17445 H 562.04644 a 18.775977,20.174461 0 0 1 -18.77588,-20.17445 z"
     stroke="#fb8500"
     fill="#8ecae6"
     id="path2-0"
     style="fill:#469aba;stroke:#ef9025;stroke-width:3.24349;stroke-dasharray:none;stroke-dashoffset:0"
     inkscape:label="path2" />
  <path
     d="M 1.2835965,228.65942 H 521.44807 m -520.1644735,0 H 0"
     stroke="#fb8500"
     fill="none"
     id="path10"
     style="stroke-width:2.58764" />
  <path
     d="m 542.07863,227.91859 -37.19334,12.07609 v -24.1522 z"
     stroke="#fb8500"
     fill="#fb8500"
     id="path12"
     style="stroke-width:2.60824" />
  <path
     d="m 655.03996,227.32319 -112.82399,-0.27834 m 112.82399,0.27834 0.27842,6.9e-4"
     stroke="#fb8500"
     fill="none"
     id="path10-0"
     style="opacity:0.84444444;stroke-width:1.205;stroke-dasharray:1.205, 3.615;stroke-dashoffset:0;marker-end:url(#Arrow1);stroke:#ef9025" />
  <use
     xlink:href="#d"
     transform="matrix(2.6082293,0,0,2.6082293,105.52226,198.43147)"
     id="use14" />
  <path
     d="m 1043.5931,229.35932 h 461.0332"
     stroke="#fb8500"
     fill="none"
     id="path16"
     style="stroke-width:2.56606" />
  <path
     d="M 913.61298,229.22518 H 1039.8385"
     stroke="#fb8500"
     fill="none"
     id="path16-9"
     style="stroke-width:1.343;stroke-dasharray:1.343, 4.029;stroke-dashoffset:0;marker-end:url(#Arrow1);stroke:#ef9025;opacity:0.84444444" />
  <g
     id="g9346"
     transform="matrix(0.61418538,0,0,0.61418538,250.79836,94.633591)"
     style="opacity:0.364444">
    <path
       d="m 661.81045,68.353322 a 15.649376,15.649376 0 0 1 15.64937,-15.649377 h 386.01798 a 15.649376,15.649376 0 0 1 15.6493,15.649377 V 390.36532 a 15.649376,15.649376 0 0 1 -15.6493,15.64936 H 677.45982 a 15.649376,15.649376 0 0 1 -15.64937,-15.64936 z"
       stroke="#fb8500"
       fill="#8ecae6"
       id="path2"
       style="stroke-width:2.60824"
       inkscape:label="path2" />
    <use
       xlink:href="#a"
       transform="matrix(2.6082293,0,0,2.6082293,764.47326,162.3858)"
       id="use4" />
    <use
       xlink:href="#b"
       transform="matrix(2.6082293,0,0,2.6082293,696.76072,238.89386)"
       id="use6" />
    <use
       xlink:href="#c"
       transform="matrix(2.6082293,0,0,2.6082293,757.12351,315.4019)"
       id="use8" />
    <path
       d="m 1081.7354,230.66341 h -1.3042 v -2.6082 h 1.3042 z"
       stroke="#fb8500"
       stroke-width="0.130411"
       fill="#fb8500"
       id="path18" />
  </g>
  <path
     d="m 1543.1238,229.35932 -37.1934,12.07609 v -24.1522 z"
     stroke="#fb8500"
     fill="#fb8500"
     id="path20"
     style="stroke-width:2.60824" />
  <use
     xlink:href="#e"
     transform="matrix(2.6082293,0,0,2.6082293,1059.5236,186.34166)"
     id="use22" />
  <g
     id="g9351"
     transform="translate(-5.4238771)">
    <path
       d="m 134.86653,-4.5527273 a 2.1105549,6.01805 0 0 1 2.11056,-6.0180497 h 52.06035 a 2.1105549,6.01805 0 0 1 2.11056,6.0180497 V 119.27868 a 2.1105549,6.01805 0 0 1 -2.11056,6.01805 h -52.06035 a 2.1105549,6.01805 0 0 1 -2.11056,-6.01805 z"
       stroke="#fb8500"
       fill="#8ecae6"
       id="path2-7"
       style="fill:none;stroke:#0f2f45;stroke-width:0.593984;stroke-dasharray:1.78195, 1.78195;stroke-dashoffset:0"
       inkscape:label="path2-7"
       transform="matrix(2.6082293,0,0,3.3592565,-411.99139,36.507624)"
       clip-path="url(#clipPath1105)" />
    <text
       xml:space="preserve"
       style="font-style:normal;font-variant:normal;font-weight:normal;font-stretch:normal;font-size:44.3606px;font-family:Arial;-inkscape-font-specification:'Arial, Normal';font-variant-ligatures:normal;font-variant-caps:normal;font-variant-numeric:normal;font-variant-east-asian:normal;opacity:0.45;fill:#0f2f45;fill-opacity:1;stroke:#0f2f45;stroke-width:2.60301;stroke-dasharray:none;stroke-dashoffset:0"
       x="45.618652"
       y="-43.590714"
       id="text1352"
       transform="matrix(0.0065797,0.99999608,-0.99992145,0.01253399,0,0)"><tspan
         sodipodi:role="line"
         id="tspan1350"
         x="45.618652"
         y="-43.590714"
         style="fill:#0f2f45;stroke-width:2.60301">ingestion aggregate</tspan></text>
  </g>
  <text
     xml:space="preserve"
     style="font-style:normal;font-variant:normal;font-weight:normal;font-stretch:normal;font-size:44.3606px;font-family:Arial;-inkscape-font-specification:'Arial, Normal';font-variant-ligatures:normal;font-variant-caps:normal;font-variant-numeric:normal;font-variant-east-asian:normal;opacity:1;fill:#0f2f45;fill-opacity:1;stroke:#0f2f45;stroke-width:2.60301;stroke-dasharray:none;stroke-dashoffset:0"
     x="554.00195"
     y="65.461823"
     id="text1352-8"
     transform="matrix(1.000017,-0.00119644,0.00715103,0.99997444,0,0)"><tspan
       sodipodi:role="line"
       id="tspan1350-5"
       x="554.00195"
       y="65.461823"
       style="fill:#0f2f45;stroke-width:2.60301">Occurrece Aggregate</tspan></text>
</svg>
